<?xml version="1.0" encoding="UTF-8"?>
<svg id="Modo_de_aislamiento" data-name="Modo de aislamiento" xmlns="http://www.w3.org/2000/svg" xmlns:xlink="http://www.w3.org/1999/xlink" viewBox="0 0 324 369">
  <defs>
    <style>
      .cls-1 {
        clip-path: url(#clippath);
      }

      .cls-2 {
        fill: none;
      }

      .cls-2, .cls-3, .cls-4, .cls-5, .cls-6 {
        stroke-width: 0px;
      }

      .cls-3 {
        fill: #7946af;
      }

      .cls-4 {
        fill: #d06ca1;
      }

      .cls-5 {
        fill: #657fd1;
      }

      .cls-6 {
        fill: #f59e0b;
      }
    </style>
    <clipPath id="clippath">
      <path class="cls-2" d="m-5.82,0v362.96c0,8.86,7.18,16.04,16.04,16.04h358.59c8.86,0,16.04-7.18,16.04-16.04V0H-5.82Z"/>
    </clipPath>
  </defs>
  <g class="cls-1">
    <g>
      <g>
        <path class="cls-6" d="m137.54,387.81l12.89-119.28s9.95-43.59-30.21-56.21c-40.16-12.61-66.38-52.27-57.92-102.16C70.75,60.27,51.81,16.88-10.26,25.56v362.25h147.8Z"/>
        <path class="cls-5" d="m-10.26,387.81h237.1c41.66-9.45,76.26-48.94,68.27-89.75-12.1-61.86-57.98-92.45-125.56-68.62-95.81,33.79-114.44-33.49-137.96-86.12-8.08-18.1-21.25-31.44-41.86-40v284.5Z"/>
        <path class="cls-3" d="m28.56,284.1c-18.82,44.65,55.78,47.96,47.82,103.7h230.46c-10.5-17.53-26.84-32.23-47.9-32.79-40.18-1.07-109.59,17.23-120.11-43.09-14.8-84.87-91.45-72.47-110.27-27.82Z"/>
      </g>
      <g>
        <path class="cls-3" d="m163.07,68.16c5.67.82,9.97,6.15,10.9,11.74.93,5.59-3.37,10.81-10.9,11.91-7.52,1.09-14.28-4.23-13.35-11.74.93-7.52,7.68-12.73,13.35-11.91Z"/>
        <path class="cls-6" d="m223.07,110.26c5.67.82,9.97,6.15,10.9,11.75.93,5.59-3.37,10.81-10.9,11.91-7.52,1.09-14.28-4.23-13.35-11.75.93-7.52,7.68-12.73,13.35-11.91Z"/>
        <path class="cls-4" d="m118.25,141.01c5.67.83,9.97,6.15,10.9,11.75.93,5.59-3.37,10.81-10.9,11.91-7.52,1.09-14.28-4.22-13.35-11.75.93-7.52,7.68-12.73,13.35-11.91Z"/>
        <path class="cls-5" d="m281.95,172.58c5.67.82,9.97,6.15,10.89,11.74.93,5.6-3.37,10.81-10.89,11.91-7.52,1.09-14.28-4.23-13.35-11.74.93-7.52,7.68-12.73,13.35-11.91Z"/>
      </g>
    </g>
  </g>
</svg>