<?xml version="1.0" encoding="UTF-8"?>
<svg id="Layer_1" data-name="Layer 1" xmlns="http://www.w3.org/2000/svg" viewBox="0 0 249.25 76.77">
  <defs>
    <style>
      .cls-1 {
        fill-rule: evenodd;
      }

      .cls-1, .cls-2 {
        fill: #fff;
      }

      .cls-1, .cls-2, .cls-3 {
        stroke-width: 0px;
      }

      .cls-3 {
        fill: #f59e0b;
      }
    </style>
  </defs>
  <path class="cls-1" d="m43.26,52.93l1.37-1.37c.23-.23.6-.23.83,0l1.37,1.37c.23.23.23.6,0,.83l-1.37,1.37c-.23.23-.6.23-.83,0l-1.37-1.37c-.23-.23-.23-.6,0-.83m-26.09-21.67l5.8-5.8c.25-.25.67-.25.92,0h0c.25.25.25.67,0,.92l-5.8,5.8c-.25.25-.67.25-.92,0-.25-.25-.25-.67,0-.92Zm33.19,10.19l3.46,3.46c.78.78.78,2.06,0,2.84l-14.36,14.36c-.78.78-2.06.78-2.84,0l-9.68-9.68-6.61-6.61-8.17-8.17c-.78-.78-.78-2.06,0-2.84l14.36-14.36c.78-.78,2.06-.78,2.84,0l.88.89c-.48.82-.93,1.66-1.35,2.51-.28-.2-.54-.28-.65-.18l-12.86,12.86c-.14.14.04.54.4.9l20.34,20.34c.36.36.76.54.9.4l12.86-12.86c.14-.14-.04-.54-.4-.9l-.24-.24c.31-.94.68-1.85,1.11-2.73Z"/>
  <path class="cls-1" d="m47.26,45.82h.02c1.17-6.67,5.38-12.19,9.93-17.2-11.35-10.42-17.03-15.63-17.03-15.63-.68.6-1.34,1.21-1.97,1.85,5.71,4.35,11.41,8.71,17.12,13.06.23.17.27.5.1.73-.51.68-1.02,1.37-1.51,2.06-3.23,4.53-6.04,9.52-6.66,15.13"/>
  <path class="cls-1" d="m35.13,31.14c-.32.43-.57.97-.73,1.62-.17.7-.2,1.3-.08,1.8.12.5.32.94.6,1.31.28.37.6.69.96.95.36.26.7.51,1.01.75.31.24.56.47.75.71.18.24.24.51.16.81-.04.17-.12.3-.22.4-.11.1-.23.17-.38.21-.14.04-.3.06-.47.05-.17,0-.34-.04-.51-.08-.42-.1-.77-.27-1.06-.49-.28-.22-.52-.46-.72-.7-.2-.24-.37-.46-.52-.65s-.31-.31-.48-.35c-.24-.06-.45.07-.63.4-.18.33-.36.89-.56,1.68-.04.17-.01.37.09.59.1.22.27.46.49.7.22.24.5.48.84.72.34.24.72.46,1.16.64-.07.29-.11.55-.13.78-.01.23.02.44.09.62.07.18.19.33.37.45.17.13.41.23.71.3.16.04.26.04.32,0,.05-.04.11-.13.17-.26l.49-1.36c1.15.12,2.08-.1,2.81-.65s1.2-1.31,1.44-2.27c.17-.67.18-1.26.04-1.76-.14-.5-.36-.95-.66-1.33s-.65-.73-1.04-1.02c-.4-.29-.76-.57-1.09-.83-.33-.27-.59-.53-.79-.8-.2-.27-.25-.56-.17-.89.09-.37.32-.64.68-.8.36-.16.73-.19,1.12-.1.28.07.48.19.6.35.13.17.2.35.23.55.03.2.03.4,0,.59-.03.2-.06.36-.09.48-.03.13-.02.23.03.28.05.06.18.11.4.17.7.17,1.28.13,1.74-.14.46-.26.78-.73.94-1.41.17-.69.1-1.31-.2-1.88-.3-.57-.86-1.02-1.67-1.36.13-.54.13-.99,0-1.33-.14-.35-.51-.6-1.11-.74-.12-.03-.22,0-.31.1-.09.09-.17.22-.24.38-.07.16-.14.35-.19.56-.06.21-.12.41-.19.59-.51-.02-1,.01-1.49.1-.49.09-.95.26-1.37.51-.43.25-.8.59-1.13,1.03m-9.25,5.48l-.72,8.9,11.62,11.62s0,0,0,0l9.71-9.71c.08-.97.19-1.84.34-2.38.89-6.21,4.37-11.68,8.19-16.74-12.25-9.35-18.37-14.02-18.37-14.02-5.83,6.13-9.6,13.94-10.77,22.32Z"/>
  <path class="cls-1" d="m48.06,44.77s.06-.01.09-.02c1.85-6.51,6.6-11.57,11.64-16.08-10.22-11.53-15.34-17.29-15.34-17.29-.97.69-1.91,1.42-2.81,2.19,5.32,4.88,10.63,9.76,15.95,14.64.23.21.24.56.04.79-4.14,4.56-8.15,9.68-9.56,15.78"/>
  <g>
    <path class="cls-2" d="m77.02,49.93c-1.65,0-3.17-.3-4.57-.9s-2.62-1.43-3.66-2.51c-1.04-1.08-1.84-2.32-2.41-3.74-.57-1.42-.85-2.95-.85-4.57s.28-3.15.85-4.57c.56-1.42,1.37-2.66,2.41-3.73,1.04-1.06,2.26-1.9,3.66-2.51,1.4-.61,2.92-.91,4.57-.91,1.84,0,3.44.3,4.79.91,1.34.61,2.54,1.43,3.58,2.47l-2.54,2.54c-.67-.74-1.49-1.31-2.46-1.72-.97-.41-2.09-.62-3.37-.62-1.13,0-2.16.2-3.09.59-.93.39-1.74.95-2.42,1.68-.68.73-1.21,1.59-1.58,2.59-.37,1-.55,2.1-.55,3.29s.18,2.29.55,3.29c.37,1,.9,1.86,1.58,2.59.68.73,1.49,1.29,2.42,1.68s1.96.59,3.09.59c1.39,0,2.57-.21,3.53-.63.97-.42,1.79-1,2.46-1.74l2.54,2.54c-1.04,1.06-2.27,1.9-3.68,2.51-1.41.61-3.03.91-4.85.91Z"/>
    <path class="cls-2" d="m94.5,49.93c-1.41,0-2.69-.36-3.82-1.08-1.14-.72-2.04-1.68-2.7-2.91-.66-1.23-.99-2.6-.99-4.12s.33-2.92.99-4.15c.66-1.22,1.56-2.2,2.7-2.93,1.14-.73,2.41-1.09,3.82-1.09,1.19,0,2.25.25,3.17.77.92.51,1.65,1.21,2.2,2.1.54.89.81,1.9.81,3.03v4.49c0,1.13-.26,2.14-.8,3.03-.53.89-1.26,1.59-2.2,2.1-.93.51-2,.77-3.19.77Zm.59-3.39c1.32,0,2.39-.45,3.21-1.34s1.22-2.03,1.22-3.42c0-.93-.19-1.76-.55-2.47-.37-.72-.88-1.27-1.55-1.68-.66-.4-1.44-.6-2.33-.6s-1.63.2-2.29.6c-.66.4-1.18.96-1.56,1.68-.38.72-.57,1.54-.57,2.47s.19,1.76.57,2.47c.38.72.9,1.27,1.56,1.68.66.4,1.43.6,2.29.6Zm4.2,3.06v-4.2l.62-3.81-.62-3.77v-3.84h3.58v15.62h-3.58Z"/>
    <path class="cls-2" d="m111.95,49.93c-.87,0-1.7-.11-2.51-.34s-1.54-.55-2.21-.98-1.26-.94-1.76-1.54l2.28-2.28c.54.63,1.17,1.1,1.87,1.42.71.32,1.5.47,2.39.47.8,0,1.41-.12,1.82-.36s.62-.59.62-1.04-.2-.85-.59-1.11c-.39-.26-.9-.48-1.51-.67s-1.27-.37-1.95-.57-1.33-.46-1.95-.8-1.12-.8-1.51-1.38c-.39-.59-.59-1.35-.59-2.28,0-1,.23-1.86.7-2.57.47-.72,1.13-1.27,1.99-1.66.86-.39,1.88-.59,3.08-.59,1.26,0,2.37.22,3.34.67s1.77,1.11,2.42,2l-2.28,2.28c-.46-.56-.98-.99-1.56-1.27-.59-.28-1.26-.42-2.02-.42-.72,0-1.27.11-1.66.33s-.59.53-.59.94c0,.43.19.77.59,1.01s.9.45,1.51.62c.62.17,1.27.37,1.95.57.68.21,1.33.49,1.95.85s1.12.83,1.51,1.43c.39.6.58,1.37.58,2.33,0,1.52-.53,2.72-1.59,3.61s-2.51,1.34-4.33,1.34Z"/>
    <path class="cls-2" d="m120.83,49.6v-23.43h3.58v23.43h-3.58Zm10.71,0v-9.02c0-1.04-.33-1.9-.99-2.57-.66-.67-1.52-1.01-2.56-1.01-.69,0-1.31.15-1.85.46-.54.3-.97.73-1.27,1.27-.3.54-.46,1.16-.46,1.85l-1.4-.78c0-1.19.26-2.25.78-3.17.52-.92,1.24-1.65,2.16-2.18s1.96-.8,3.11-.8,2.21.26,3.12.78c.91.52,1.63,1.24,2.15,2.16.52.92.78,1.99.78,3.21v9.8h-3.58Z"/>
    <path class="cls-3" d="m137.37,31.54v-5.01h19.95v5.01h-19.95Zm7.06,18.06v-22.91h5.83v22.91h-5.83Z"/>
    <path class="cls-3" d="m156.5,49.6v-15.92h5.66v15.92h-5.66Zm5.66-8.66l-2.54-2.15c.63-1.8,1.46-3.16,2.51-4.07,1.04-.91,2.4-1.37,4.07-1.37.76,0,1.41.1,1.97.29s1.03.5,1.42.91l-3.29,4.39c-.17-.2-.42-.35-.73-.47s-.67-.18-1.06-.18c-.74,0-1.31.22-1.72.67-.41.45-.62,1.1-.62,1.97Z"/>
    <path class="cls-3" d="m176.91,49.93c-1.48,0-2.79-.36-3.94-1.08-1.15-.72-2.05-1.7-2.7-2.95-.65-1.25-.98-2.66-.98-4.25s.33-3.04.98-4.3c.65-1.26,1.55-2.24,2.7-2.95s2.46-1.06,3.94-1.06c1,0,1.91.18,2.73.54.82.36,1.5.86,2.03,1.51.53.65.85,1.39.96,2.21v8.01c-.11.84-.43,1.59-.96,2.23-.53.64-1.21,1.14-2.03,1.51-.83.37-1.74.55-2.73.55Zm1.2-5.05c.93,0,1.69-.3,2.26-.91.57-.61.86-1.39.86-2.34,0-.63-.13-1.18-.39-1.66-.26-.48-.63-.86-1.09-1.14-.47-.28-1-.42-1.61-.42s-1.15.14-1.61.42c-.47.28-.83.67-1.1,1.15-.27.49-.41,1.04-.41,1.64s.13,1.19.39,1.68c.26.49.63.87,1.11,1.15.48.28,1.01.42,1.59.42Zm2.9,4.72v-4.26l.81-3.9-.81-3.84v-3.91h5.57v15.92h-5.57Z"/>
    <path class="cls-3" d="m197.78,49.96c-1.69,0-3.22-.36-4.57-1.07-1.36-.72-2.43-1.7-3.21-2.96-.78-1.26-1.17-2.68-1.17-4.26s.39-3.04,1.19-4.3,1.87-2.25,3.22-2.98c1.36-.73,2.89-1.09,4.61-1.09,1.24,0,2.37.21,3.39.62,1.02.41,1.95,1.03,2.8,1.86l-3.58,3.58c-.33-.33-.7-.57-1.12-.73-.42-.16-.92-.24-1.48-.24-.61,0-1.16.14-1.64.41-.49.27-.88.65-1.17,1.12-.29.48-.44,1.05-.44,1.72s.15,1.22.44,1.71c.29.49.68.87,1.17,1.15.49.28,1.04.42,1.64.42s1.13-.1,1.56-.29c.43-.2.81-.48,1.14-.85l3.61,3.58c-.89.87-1.85,1.52-2.88,1.95-1.03.43-2.2.65-3.5.65Z"/>
    <path class="cls-3" d="m206.2,49.6v-23.73h5.67v23.73h-5.67Zm10.22,0l-5.01-8.33,4.98-7.58h6.22l-6.19,8.56.16-2.08,6.35,9.44h-6.51Z"/>
    <path class="cls-3" d="m224.01,49.6v-15.92h5.66v15.92h-5.66Zm5.66-8.66l-2.54-2.15c.63-1.8,1.46-3.16,2.51-4.07,1.04-.91,2.4-1.37,4.07-1.37.76,0,1.41.1,1.97.29s1.03.5,1.42.91l-3.29,4.39c-.17-.2-.42-.35-.73-.47s-.67-.18-1.06-.18c-.74,0-1.31.22-1.72.67-.41.45-.62,1.1-.62,1.97Z"/>
  </g>
</svg>